<?xml version="1.0" encoding="UTF-8" standalone="no"?>
<!-- Created with Inkscape (http://www.inkscape.org/) -->

<svg
   width="1024"
   height="1024"
   viewBox="0 0 270.93332 270.93334"
   version="1.1"
   id="svg1"
   xml:space="preserve"
   inkscape:version="1.4.4 (dcaf3e7d9e, 2026-05-05)"
   sodipodi:docname="V3RProp-Favicon.svg"
   inkscape:export-filename="V3RProp-Favicon.png"
   inkscape:export-xdpi="96"
   inkscape:export-ydpi="96"
   xmlns:inkscape="http://www.inkscape.org/namespaces/inkscape"
   xmlns:sodipodi="http://sodipodi.sourceforge.net/DTD/sodipodi-0.dtd"
   xmlns:xlink="http://www.w3.org/1999/xlink"
   xmlns="http://www.w3.org/2000/svg"
   xmlns:svg="http://www.w3.org/2000/svg"><sodipodi:namedview
     id="namedview1"
     pagecolor="#ffffff"
     bordercolor="#000000"
     borderopacity="0.25"
     inkscape:showpageshadow="2"
     inkscape:pageopacity="0.0"
     inkscape:pagecheckerboard="0"
     inkscape:deskcolor="#d1d1d1"
     inkscape:document-units="px"
     showguides="true"
     inkscape:zoom="0.2772494"
     inkscape:cx="-1031.5622"
     inkscape:cy="485.12279"
     inkscape:window-width="2560"
     inkscape:window-height="1012"
     inkscape:window-x="0"
     inkscape:window-y="0"
     inkscape:window-maximized="1"
     inkscape:current-layer="layer1" /><defs
     id="defs1"><linearGradient
       id="linearGradient27"
       inkscape:collect="always"><stop
         style="stop-color:#1e2d2b;stop-opacity:1;"
         offset="0"
         id="stop27" /><stop
         style="stop-color:#da8c1c;stop-opacity:1;"
         offset="1"
         id="stop28" /></linearGradient><linearGradient
       inkscape:collect="always"
       xlink:href="#linearGradient27"
       id="linearGradient28"
       x1="0"
       y1="0"
       x2="270.93332"
       y2="270.93332"
       gradientUnits="userSpaceOnUse"
       gradientTransform="translate(-268.55207,-22.489579)" /></defs><g
     inkscape:label="Camada 1"
     inkscape:groupmode="layer"
     id="layer1"><g
       id="g29"
       transform="translate(268.55207,22.489584)"><circle
         style="fill:#ffffff;fill-opacity:1;stroke:none;stroke-width:0.780486;stroke-dasharray:none"
         id="circle27"
         cx="-133.0854"
         cy="112.97708"
         r="135.46666" /><g
         id="g28"
         transform="matrix(2.4034847,0,0,2.4034847,-1181.2856,-48.689454)"><g
           id="g26"
           transform="matrix(1.0649359,0,0,1.0649359,475.02292,-19.654261)"><path
             style="fill:#24393a;fill-opacity:1;stroke-width:0.0584034"
             d="M -52.327977,44.15676 V 86.41951 H -18.35973 V 50.878618 l -7.803529,-6.721858 z"
             id="path12" /><path
             style="fill:#24393a;fill-opacity:1;stroke-width:0.0584034"
             d="m -56.09,50.878618 v 42.108191 h 33.84216 V 86.41951 h -26.192028 l 0.02727,-35.540892 z"
             id="path11"
             sodipodi:nodetypes="ccccccc" /><path
             style="fill:#ffffff;stroke-width:0.0584034"
             d="m -50.945631,45.347495 v 42.26275 h 33.968247 V 52.069353 l -7.803529,-6.721858 z"
             id="path25" /><path
             style="fill:#da8c1c;fill-opacity:1;stroke-width:0.0584034"
             d="m -24.780913,45.347495 7.803529,6.721858 c 0,0 -6.162868,-0.422035 -6.638855,-0.78281 -0.403993,-0.306214 -1.164674,-5.939048 -1.164674,-5.939048 z"
             id="path14"
             sodipodi:nodetypes="ccsc" /><path
             id="rect14"
             style="fill:#24393a;fill-opacity:1;stroke-width:0.0584034"
             d="m -34.310804,58.32764 h 13.746946 c 0.296175,0 0.534607,0.238431 0.534607,0.534601 0,0.296169 -0.238432,0.534606 -0.534607,0.534606 h -13.746946 c -0.296169,0 -0.5346,-0.238437 -0.5346,-0.534606 0,-0.29617 0.238431,-0.534601 0.5346,-0.534601 z" /><path
             id="path15"
             style="fill:#24393a;fill-opacity:1;stroke-width:0.0584034"
             d="m -34.310804,61.128413 h 13.746946 c 0.296175,0 0.534607,0.238432 0.534607,0.534601 0,0.296169 -0.238432,0.534607 -0.534607,0.534607 h -13.746946 c -0.296169,0 -0.5346,-0.238438 -0.5346,-0.534607 0,-0.296169 0.238431,-0.534601 0.5346,-0.534601 z" /><path
             id="path16"
             style="fill:#24393a;fill-opacity:1;stroke-width:0.0584034"
             d="m -34.31078,63.929187 h 13.746946 c 0.296175,0 0.534606,0.238431 0.534606,0.534601 0,0.296169 -0.238431,0.534606 -0.534606,0.534606 H -34.31078 c -0.296169,0 -0.534601,-0.238437 -0.534601,-0.534606 0,-0.29617 0.238432,-0.534601 0.534601,-0.534601 z" /><path
             id="path17"
             style="fill:#24393a;fill-opacity:1;stroke-width:0.0584034"
             d="m -34.31078,66.72996 h 13.746946 c 0.296175,0 0.534606,0.238432 0.534606,0.534601 0,0.296169 -0.238431,0.534607 -0.534606,0.534607 H -34.31078 c -0.296169,0 -0.534601,-0.238438 -0.534601,-0.534607 0,-0.296169 0.238432,-0.534601 0.534601,-0.534601 z" /><path
             id="path18"
             style="fill:#24393a;fill-opacity:1;stroke-width:0.0584034"
             d="m -47.217635,69.530734 h 26.653801 c 0.296175,0 0.534606,0.238432 0.534606,0.534601 0,0.296169 -0.238431,0.534607 -0.534606,0.534607 h -26.653801 c -0.296169,0 -0.5346,-0.238438 -0.5346,-0.534607 0,-0.296169 0.238431,-0.534601 0.5346,-0.534601 z"
             sodipodi:nodetypes="sssssss" /><path
             id="path19"
             style="fill:#24393a;fill-opacity:1;stroke-width:0.0584034"
             d="m -47.217635,72.331508 h 22.436722 c 0.296175,0 0.534607,0.238431 0.534607,0.5346 0,0.29617 -0.238432,0.534607 -0.534607,0.534607 h -22.436722 c -0.296169,0 -0.5346,-0.238437 -0.5346,-0.534607 0,-0.296169 0.238431,-0.5346 0.5346,-0.5346 z"
             sodipodi:nodetypes="sssssss" /><path
             id="path20"
             style="fill:#24393a;fill-opacity:1;stroke-width:0.0584034"
             d="m -47.217635,75.132281 h 22.436722 c 0.296175,0 0.534607,0.238432 0.534607,0.534601 0,0.296169 -0.238432,0.534607 -0.534607,0.534607 h -22.436722 c -0.296169,0 -0.5346,-0.238438 -0.5346,-0.534607 0,-0.296169 0.238431,-0.534601 0.5346,-0.534601 z"
             sodipodi:nodetypes="sssssss" /><path
             id="path21"
             style="fill:#24393a;fill-opacity:1;stroke-width:0.0584034"
             d="m -47.217635,77.933055 h 22.436722 c 0.296175,0 0.534607,0.238431 0.534607,0.534601 0,0.296169 -0.238432,0.534606 -0.534607,0.534606 h -22.436722 c -0.296169,0 -0.5346,-0.238437 -0.5346,-0.534606 0,-0.29617 0.238431,-0.534601 0.5346,-0.534601 z"
             sodipodi:nodetypes="sssssss" /><path
             id="path23"
             style="fill:#24393a;fill-opacity:1;stroke-width:0.0584034"
             d="m -47.217635,80.733828 h 22.436722 c 0.296175,0 0.534607,0.238432 0.534607,0.534601 0,0.296169 -0.238432,0.534607 -0.534607,0.534607 h -22.436722 c -0.296169,0 -0.5346,-0.238438 -0.5346,-0.534607 0,-0.296169 0.238431,-0.534601 0.5346,-0.534601 z"
             sodipodi:nodetypes="sssssss" /><path
             id="rect23"
             style="fill:#da8c1c;fill-opacity:1;stroke-width:0.0584034"
             d="m -45.742202,56.035238 h 5.526417 c 0.761579,0 1.374698,0.613113 1.374698,1.374698 v 5.526411 c 0,0.761586 -0.613119,1.374698 -1.374698,1.374698 h -5.526417 c -0.76158,0 -1.374693,-0.613112 -1.374693,-1.374698 v -5.526411 c 0,-0.761585 0.613113,-1.374698 1.374693,-1.374698 z" /><path
             style="fill:#ffffff;stroke-width:0.0818821"
             d="m -46.905574,59.927856 2.278017,3.394596 5.575149,-6.29862 -5.395307,3.33434 z"
             id="path24"
             sodipodi:nodetypes="ccccc" /></g><path
           id="path38"
           style="fill:#e6a61c;stroke-width:0.560581"
           d="M 436.11687,71.567676 403.17814,42.070771 v 15.732036 l 32.93265,31.912416 z"
           sodipodi:nodetypes="ccccc" /><path
           id="path40"
           style="fill:#1e2d2b;fill-opacity:1;stroke-width:0.560581"
           d="M 436.11687,89.715223 390.5228,45.541777 v 26.025899 l 45.59407,44.395914 z"
           sodipodi:nodetypes="ccccc" /><path
           id="path13"
           style="fill:#da8c1c;fill-opacity:1;stroke-width:0.560581"
           d="M 436.11383,71.567676 469.05256,42.070771 V 57.802807 L 436.1199,89.715223 Z"
           sodipodi:nodetypes="ccccc" /><path
           id="path22"
           style="fill:#24393a;stroke-width:0.560581"
           d="M 436.11688,89.715223 481.71095,45.541777 V 71.567676 L 436.11687,115.96359 Z"
           sodipodi:nodetypes="ccccc" /></g><path
         id="path26"
         style="fill:url(#linearGradient28);fill-opacity:1;stroke:none;stroke-width:0.780486;stroke-dasharray:none"
         d="M -133.08541,-22.489579 A 135.46666,135.46666 0 0 0 -268.55207,112.97708 135.46666,135.46666 0 0 0 -133.08541,248.44374 135.46666,135.46666 0 0 0 2.38125,112.97708 135.46666,135.46666 0 0 0 -133.08541,-22.489579 Z m 0,9.167399 A 126.29932,126.29932 0 0 1 -6.78615,112.97708 126.29932,126.29932 0 0 1 -133.08541,239.27634 126.29932,126.29932 0 0 1 -259.38467,112.97708 126.29932,126.29932 0 0 1 -133.08541,-13.32218 Z" /></g></g></svg>
