<?xml version="1.0" encoding="UTF-8" standalone="no"?>
<!-- Created with Inkscape (http://www.inkscape.org/) -->

<svg
   width="1024"
   height="276.69"
   viewBox="0 0 270.93332 73.207564"
   version="1.1"
   id="svg1"
   xml:space="preserve"
   inkscape:version="1.4.4 (dcaf3e7d9e, 2026-05-05)"
   sodipodi:docname="V3RProp-Logo-Horizontal.svg"
   inkscape:export-filename="V3RProp-Logo-Horizontal.png"
   inkscape:export-xdpi="96"
   inkscape:export-ydpi="96"
   xmlns:inkscape="http://www.inkscape.org/namespaces/inkscape"
   xmlns:sodipodi="http://sodipodi.sourceforge.net/DTD/sodipodi-0.dtd"
   xmlns="http://www.w3.org/2000/svg"
   xmlns:svg="http://www.w3.org/2000/svg"><sodipodi:namedview
     id="namedview1"
     pagecolor="#ffffff"
     bordercolor="#000000"
     borderopacity="0.25"
     inkscape:showpageshadow="2"
     inkscape:pageopacity="0.0"
     inkscape:pagecheckerboard="0"
     inkscape:deskcolor="#d1d1d1"
     inkscape:document-units="px"
     showguides="true"
     inkscape:zoom="1.4307099"
     inkscape:cx="509.53724"
     inkscape:cy="116.37579"
     inkscape:window-width="2560"
     inkscape:window-height="1012"
     inkscape:window-x="0"
     inkscape:window-y="0"
     inkscape:window-maximized="1"
     inkscape:current-layer="layer1" /><defs
     id="defs1" /><g
     inkscape:label="Camada 1"
     inkscape:groupmode="layer"
     id="layer1"><g
       id="g2"
       transform="matrix(2.2288092,0,0,2.2288092,-15.497998,-95.641271)"><g
         id="g1"
         transform="matrix(0.37074904,0,0,0.37074904,-1.2545501,42.911379)"><g
           id="g26"
           transform="matrix(1.0649359,0,0,1.0649359,106.63936,-47.024124)"><path
             style="fill:#24393a;fill-opacity:1;stroke-width:0.0584034"
             d="M -52.327977,44.15676 V 86.41951 H -18.35973 V 50.878618 l -7.803529,-6.721858 z"
             id="path12" /><path
             style="fill:#24393a;fill-opacity:1;stroke-width:0.0584034"
             d="m -56.09,50.878618 v 42.108191 h 33.84216 V 86.41951 h -26.192028 l 0.02727,-35.540892 z"
             id="path11"
             sodipodi:nodetypes="ccccccc" /><path
             style="fill:#ffffff;stroke-width:0.0584034"
             d="m -50.945631,45.347495 v 42.26275 h 33.968247 V 52.069353 l -7.803529,-6.721858 z"
             id="path25" /><path
             style="fill:#da8c1c;fill-opacity:1;stroke-width:0.0584034"
             d="m -24.780913,45.347495 7.803529,6.721858 c 0,0 -6.162868,-0.422035 -6.638855,-0.78281 -0.403993,-0.306214 -1.164674,-5.939048 -1.164674,-5.939048 z"
             id="path14"
             sodipodi:nodetypes="ccsc" /><path
             id="rect14"
             style="fill:#24393a;fill-opacity:1;stroke-width:0.0584034"
             d="m -34.310804,58.32764 h 13.746946 c 0.296175,0 0.534607,0.238431 0.534607,0.534601 0,0.296169 -0.238432,0.534606 -0.534607,0.534606 h -13.746946 c -0.296169,0 -0.5346,-0.238437 -0.5346,-0.534606 0,-0.29617 0.238431,-0.534601 0.5346,-0.534601 z" /><path
             id="path15"
             style="fill:#24393a;fill-opacity:1;stroke-width:0.0584034"
             d="m -34.310804,61.128413 h 13.746946 c 0.296175,0 0.534607,0.238432 0.534607,0.534601 0,0.296169 -0.238432,0.534607 -0.534607,0.534607 h -13.746946 c -0.296169,0 -0.5346,-0.238438 -0.5346,-0.534607 0,-0.296169 0.238431,-0.534601 0.5346,-0.534601 z" /><path
             id="path16"
             style="fill:#24393a;fill-opacity:1;stroke-width:0.0584034"
             d="m -34.31078,63.929187 h 13.746946 c 0.296175,0 0.534606,0.238431 0.534606,0.534601 0,0.296169 -0.238431,0.534606 -0.534606,0.534606 H -34.31078 c -0.296169,0 -0.534601,-0.238437 -0.534601,-0.534606 0,-0.29617 0.238432,-0.534601 0.534601,-0.534601 z" /><path
             id="path17"
             style="fill:#24393a;fill-opacity:1;stroke-width:0.0584034"
             d="m -34.31078,66.72996 h 13.746946 c 0.296175,0 0.534606,0.238432 0.534606,0.534601 0,0.296169 -0.238431,0.534607 -0.534606,0.534607 H -34.31078 c -0.296169,0 -0.534601,-0.238438 -0.534601,-0.534607 0,-0.296169 0.238432,-0.534601 0.534601,-0.534601 z" /><path
             id="path18"
             style="fill:#24393a;fill-opacity:1;stroke-width:0.0584034"
             d="m -47.217635,69.530734 h 26.653801 c 0.296175,0 0.534606,0.238432 0.534606,0.534601 0,0.296169 -0.238431,0.534607 -0.534606,0.534607 h -26.653801 c -0.296169,0 -0.5346,-0.238438 -0.5346,-0.534607 0,-0.296169 0.238431,-0.534601 0.5346,-0.534601 z"
             sodipodi:nodetypes="sssssss" /><path
             id="path19"
             style="fill:#24393a;fill-opacity:1;stroke-width:0.0584034"
             d="m -47.217635,72.331508 h 22.436722 c 0.296175,0 0.534607,0.238431 0.534607,0.5346 0,0.29617 -0.238432,0.534607 -0.534607,0.534607 h -22.436722 c -0.296169,0 -0.5346,-0.238437 -0.5346,-0.534607 0,-0.296169 0.238431,-0.5346 0.5346,-0.5346 z"
             sodipodi:nodetypes="sssssss" /><path
             id="path20"
             style="fill:#24393a;fill-opacity:1;stroke-width:0.0584034"
             d="m -47.217635,75.132281 h 22.436722 c 0.296175,0 0.534607,0.238432 0.534607,0.534601 0,0.296169 -0.238432,0.534607 -0.534607,0.534607 h -22.436722 c -0.296169,0 -0.5346,-0.238438 -0.5346,-0.534607 0,-0.296169 0.238431,-0.534601 0.5346,-0.534601 z"
             sodipodi:nodetypes="sssssss" /><path
             id="path21"
             style="fill:#24393a;fill-opacity:1;stroke-width:0.0584034"
             d="m -47.217635,77.933055 h 22.436722 c 0.296175,0 0.534607,0.238431 0.534607,0.534601 0,0.296169 -0.238432,0.534606 -0.534607,0.534606 h -22.436722 c -0.296169,0 -0.5346,-0.238437 -0.5346,-0.534606 0,-0.29617 0.238431,-0.534601 0.5346,-0.534601 z"
             sodipodi:nodetypes="sssssss" /><path
             id="path23"
             style="fill:#24393a;fill-opacity:1;stroke-width:0.0584034"
             d="m -47.217635,80.733828 h 22.436722 c 0.296175,0 0.534607,0.238432 0.534607,0.534601 0,0.296169 -0.238432,0.534607 -0.534607,0.534607 h -22.436722 c -0.296169,0 -0.5346,-0.238438 -0.5346,-0.534607 0,-0.296169 0.238431,-0.534601 0.5346,-0.534601 z"
             sodipodi:nodetypes="sssssss" /><path
             id="rect23"
             style="fill:#da8c1c;fill-opacity:1;stroke-width:0.0584034"
             d="m -45.742202,56.035238 h 5.526417 c 0.761579,0 1.374698,0.613113 1.374698,1.374698 v 5.526411 c 0,0.761586 -0.613119,1.374698 -1.374698,1.374698 h -5.526417 c -0.76158,0 -1.374693,-0.613112 -1.374693,-1.374698 v -5.526411 c 0,-0.761585 0.613113,-1.374698 1.374693,-1.374698 z" /><path
             style="fill:#ffffff;stroke-width:0.0818821"
             d="m -46.905574,59.927856 2.278017,3.394596 5.575149,-6.29862 -5.395307,3.33434 z"
             id="path24"
             sodipodi:nodetypes="ccccc" /></g><path
           id="path38"
           style="fill:#e6a61c;stroke-width:0.560581"
           d="M 67.733313,44.197813 34.794589,14.700908 V 30.432944 L 67.727235,62.34536 Z"
           sodipodi:nodetypes="ccccc" /><path
           id="path40"
           style="fill:#1e2d2b;fill-opacity:1;stroke-width:0.560581"
           d="M 67.733313,62.34536 22.139245,18.171914 v 26.025899 l 45.594073,44.395916 z"
           sodipodi:nodetypes="ccccc" /><path
           id="path13"
           style="fill:#da8c1c;fill-opacity:1;stroke-width:0.560581"
           d="M 67.730273,44.197813 100.669,14.700908 V 30.432944 L 67.736351,62.34536 Z"
           sodipodi:nodetypes="ccccc" /><path
           id="path22"
           style="fill:#24393a;stroke-width:0.560581"
           d="M 67.733323,62.34536 113.32739,18.171914 V 44.197813 L 67.733318,88.593729 Z"
           sodipodi:nodetypes="ccccc" /></g><path
         style="font-size:47.7142px;font-family:'Good Times';-inkscape-font-specification:'Good Times';fill:#1e2d2b;stroke-width:7.52079"
         d="m 44.815227,49.648599 h 2.561535 l 5.453593,9.254581 5.437066,-9.254581 h 2.412801 l -6.924409,11.502126 c -0.121191,0.209327 -0.264417,0.374582 -0.429677,0.49578 -0.16526,0.121192 -0.358064,0.181784 -0.578411,0.181784 -0.231365,0 -0.429677,-0.0606 -0.594938,-0.181784 -0.16526,-0.121198 -0.308485,-0.286453 -0.429677,-0.49578 z m 10.004391,12.014428 1.208558,-2.098805 h 13.377799 c 0.661041,0 1.200892,-0.132206 1.619552,-0.396624 0.418659,-0.264418 0.627988,-0.661043 0.627988,-1.189872 0,-0.495787 -0.154242,-0.875883 -0.462728,-1.140301 C 70.882301,56.573006 70.430589,56.4408 69.835652,56.4408 h -5.304858 v -1.768287 h 5.156124 c 0.594937,0 1.035631,-0.11017 1.322083,-0.330517 0.286451,-0.220348 0.429676,-0.594943 0.429676,-1.123773 0,-0.561887 -0.187295,-0.94749 -0.561885,-1.156823 -0.37459,-0.220347 -0.908932,-0.330518 -1.603025,-0.330518 h -8.734914 l 1.199041,-2.082283 h 7.949024 c 0.58392,0 1.112753,0.06611 1.586499,0.198312 0.473747,0.132206 0.881388,0.330518 1.222927,0.594936 0.341538,0.253404 0.600446,0.578415 0.776724,0.975039 0.187295,0.385603 0.280942,0.831812 0.280942,1.338606 0,0.760199 -0.16526,1.344121 -0.495781,1.751766 -0.319503,0.396624 -0.705111,0.666549 -1.156823,0.80977 0.550868,0.176276 1.00258,0.495786 1.355135,0.958517 0.352556,0.462724 0.528834,1.046645 0.528834,1.751752 0,0.550872 -0.09365,1.052159 -0.280943,1.503869 -0.176278,0.440695 -0.435186,0.820797 -0.776724,1.140301 -0.33052,0.308489 -0.738163,0.550872 -1.222927,0.727148 -0.473746,0.176277 -1.002579,0.264412 -1.586499,0.264412 z m 30.967358,0 -3.040791,-3.338255 h -4.495082 v -1.850915 h 5.007389 c 0.760198,0 1.333101,-0.203826 1.718708,-0.611471 0.385607,-0.41866 0.578411,-1.019103 0.578411,-1.801337 0,-0.782227 -0.203821,-1.360642 -0.611463,-1.73523 -0.396625,-0.38561 -0.95851,-0.578408 -1.685656,-0.578408 h -6.54431 v 9.915616 H 74.631901 V 49.648599 h 8.626591 c 0.683077,0 1.29454,0.104663 1.834391,0.313996 0.53985,0.198312 0.99707,0.490273 1.37166,0.875876 0.374591,0.374596 0.66104,0.831812 0.859353,1.371663 0.198312,0.539851 0.297471,1.145808 0.297471,1.817865 0,1.002582 -0.220348,1.845408 -0.661043,2.528486 -0.429676,0.672056 -1.035631,1.156822 -1.817863,1.45429 l 3.619203,3.652252 z"
         id="text22"
         aria-label="V3R"
         sodipodi:nodetypes="ccccccsssccccsssssccssscsccssccsccsscccscccccscscsccccsccsscccc" /><path
         style="font-weight:bold;font-size:17.1635px;font-family:'Exo 2';-inkscape-font-specification:'Exo 2 Bold';letter-spacing:0.893937px;fill:#da8c1c;stroke-width:0.0675728"
         d="m 94.070217,49.648583 q 1.66486,0 2.608852,0.34327 0.943993,0.34327 1.338753,1.184281 0.411924,0.841012 0.411924,2.3514 0,1.510388 -0.39476,2.351399 -0.377597,0.841012 -1.252936,1.184282 -0.875338,0.326106 -2.368563,0.326106 -0.789521,0 -1.544715,-0.06865 -0.755194,-0.06865 -1.407407,-0.171635 -0.652213,-0.102981 -1.115627,-0.205962 -0.463415,-0.120144 -0.63505,-0.223125 l 0.05149,-1.304426 q 1.012646,0 2.093947,0 1.098464,0 2.162601,0 0.68654,-0.01716 1.064137,-0.171635 0.39476,-0.154472 0.549232,-0.566396 0.171635,-0.411924 0.171635,-1.149954 0,-0.755194 -0.171635,-1.167118 -0.154472,-0.411924 -0.549232,-0.566396 -0.377597,-0.171635 -1.064137,-0.171635 -1.579042,0 -2.711833,0.01716 -1.132791,0.01716 -1.527552,0.06865 L 89.52189,49.820218 q 0.720867,-0.08582 1.355916,-0.120145 0.63505,-0.03433 1.37308,-0.03433 0.755194,-0.01716 1.819331,-0.01716 z m -1.922312,0.171635 V 61.663033 H 89.52189 V 49.820218 Z m 10.711455,3.364046 0.30895,1.682023 0.24029,0.223125 v 6.573621 h -2.5402 v -8.478769 z m 4.13641,-0.223126 -0.24029,2.3514 h -0.7037 q -0.60073,0 -1.25294,0.171635 -0.65221,0.171635 -1.6477,0.514905 l -0.17163,-1.424571 q 0.8925,-0.789521 1.80217,-1.201445 0.90966,-0.411924 1.76784,-0.411924 z m 5.98293,0 q 1.5962,0 2.55736,0.446251 0.96116,0.429088 1.37308,1.407407 0.42909,0.97832 0.42909,2.626016 0,1.613369 -0.42909,2.591688 -0.41192,0.97832 -1.37308,1.407407 -0.96116,0.429088 -2.55736,0.429088 -1.57904,0 -2.55736,-0.429088 -0.96116,-0.429087 -1.39025,-1.407407 -0.42908,-0.978319 -0.42908,-2.591688 0,-1.647696 0.42908,-2.626016 0.42909,-0.978319 1.39025,-1.407407 0.97832,-0.446251 2.55736,-0.446251 z m 0,1.853658 q -0.65221,0 -1.02981,0.223126 -0.3776,0.223125 -0.53207,0.789521 -0.15447,0.566395 -0.15447,1.613369 0,1.02981 0.15447,1.596205 0.15447,0.566396 0.53207,0.789521 0.3776,0.205962 1.02981,0.205962 0.65221,0 1.02981,-0.205962 0.3776,-0.223125 0.53207,-0.789521 0.15447,-0.566395 0.15447,-1.596205 0,-1.046974 -0.15447,-1.613369 -0.15447,-0.566396 -0.53207,-0.789521 -0.3776,-0.223126 -1.02981,-0.223126 z m 12.56512,-1.836494 q 1.5962,0 2.28274,1.167118 0.68654,1.167118 0.68654,3.346882 0,1.699187 -0.36043,2.660343 -0.34327,0.961156 -1.06414,1.355916 -0.7037,0.377597 -1.76784,0.377597 -0.90966,0 -1.73351,-0.257452 -0.82385,-0.257453 -1.4589,-0.858175 l 0.17164,-1.132791 q 0.56639,0.171635 1.02981,0.308943 0.48058,0.120144 1.0813,0.120144 0.54923,0 0.87534,-0.188798 0.3261,-0.188799 0.46341,-0.738031 0.15447,-0.566395 0.15447,-1.630532 0,-1.046974 -0.13731,-1.596206 -0.1373,-0.566395 -0.44625,-0.772357 -0.30894,-0.223126 -0.80668,-0.223126 -0.54923,0 -1.01265,0.223126 -0.46341,0.205962 -1.04697,0.600722 l -0.32611,-1.167118 q 0.34327,-0.463414 0.87534,-0.823848 0.54923,-0.360433 1.20145,-0.566395 0.65221,-0.205962 1.33875,-0.205962 z m -3.51852,0.205962 0.24029,1.544715 0.24029,0.257452 v 5.509484 l -0.0858,0.205962 q 0.0515,0.514905 0.0687,1.064137 0.0343,0.566395 0.0172,1.115627 v 2.042456 h -2.5402 V 53.184264 Z"
         id="text26"
         aria-label="Prop" /><path
         style="font-weight:bold;font-size:5.61186px;font-family:'Exo 2';-inkscape-font-specification:'Exo 2 Bold';letter-spacing:0.292286px;fill:#666666;stroke-width:0.0220939"
         d="m 37.555536,67.910779 q 0.544351,0 0.853003,0.112237 0.308652,0.112237 0.437725,0.387218 0.134685,0.274982 0.134685,0.768825 0,0.493844 -0.129073,0.768825 -0.123461,0.274981 -0.409666,0.387218 -0.286205,0.106626 -0.774436,0.106626 -0.258146,0 -0.505068,-0.02245 -0.246922,-0.02245 -0.460172,-0.05612 -0.213251,-0.03367 -0.364771,-0.06734 -0.15152,-0.03928 -0.207639,-0.07295 l 0.01684,-0.426501 q 0.331099,0 0.684646,0 0.35916,0 0.707095,0 0.224474,-0.0056 0.347935,-0.05612 0.129073,-0.05051 0.17958,-0.185191 0.05612,-0.134685 0.05612,-0.375995 0,-0.246922 -0.05612,-0.381606 -0.05051,-0.134685 -0.17958,-0.185192 -0.123461,-0.05612 -0.347935,-0.05612 -0.516291,0 -0.886674,0.0056 -0.370383,0.0056 -0.499456,0.02245 l -0.08418,-0.617304 q 0.235698,-0.02806 0.443336,-0.03928 0.207639,-0.01122 0.448949,-0.01122 0.246922,-0.0056 0.594857,-0.0056 z m -0.628528,0.05612 v 3.872183 h -0.858614 v -3.872183 z m 3.50227,1.099924 0.101014,0.549962 0.07857,0.07296 v 2.149342 h -0.830556 v -2.772259 z m 1.352458,-0.07295 -0.07857,0.768825 H 41.47308 q -0.196415,0 -0.409666,0.05612 -0.21325,0.05612 -0.538738,0.168356 l -0.05612,-0.465784 q 0.291817,-0.258146 0.589245,-0.39283 0.297429,-0.134685 0.578022,-0.134685 z m 1.956208,0 q 0.521903,0 0.836167,0.145908 0.314264,0.140297 0.448949,0.460173 0.140296,0.319876 0.140296,0.858614 0,0.527515 -0.140296,0.847391 -0.134685,0.319876 -0.448949,0.460173 -0.314264,0.140296 -0.836167,0.140296 -0.516291,0 -0.836167,-0.140296 -0.314264,-0.140297 -0.454561,-0.460173 -0.140296,-0.319876 -0.140296,-0.847391 0,-0.538738 0.140296,-0.858614 0.140297,-0.319876 0.454561,-0.460173 0.319876,-0.145908 0.836167,-0.145908 z m 0,0.606081 q -0.213251,0 -0.336712,0.07295 -0.123461,0.07295 -0.173967,0.258145 -0.05051,0.185192 -0.05051,0.527515 0,0.336712 0.05051,0.521903 0.05051,0.185192 0.173967,0.258146 0.123461,0.06734 0.336712,0.06734 0.21325,0 0.336711,-0.06734 0.123461,-0.07295 0.173968,-0.258146 0.05051,-0.185191 0.05051,-0.521903 0,-0.342323 -0.05051,-0.527515 -0.05051,-0.185191 -0.173968,-0.258145 -0.123461,-0.07295 -0.336711,-0.07295 z m 4.108352,-0.600469 q 0.521903,0 0.746377,0.381606 0.224475,0.381607 0.224475,1.094313 0,0.555574 -0.117849,0.869838 -0.112238,0.314264 -0.347936,0.443337 -0.230086,0.123461 -0.578021,0.123461 -0.297429,0 -0.566798,-0.08418 -0.269369,-0.08418 -0.477008,-0.280593 l 0.05612,-0.370383 q 0.185191,0.05612 0.336711,0.101014 0.157132,0.03928 0.353547,0.03928 0.17958,0 0.286205,-0.06173 0.106625,-0.06173 0.15152,-0.24131 0.05051,-0.185191 0.05051,-0.533126 0,-0.342324 -0.0449,-0.521903 -0.04489,-0.185192 -0.145908,-0.252534 -0.101014,-0.07295 -0.263758,-0.07295 -0.179579,0 -0.331099,0.07295 -0.151521,0.06734 -0.342324,0.196415 l -0.106625,-0.381606 q 0.112237,-0.151521 0.286205,-0.26937 0.179579,-0.117849 0.39283,-0.185191 0.213251,-0.06734 0.437725,-0.06734 z m -1.150431,0.06734 0.07857,0.505067 0.07857,0.08418 v 1.801407 l -0.02806,0.06734 q 0.01684,0.168355 0.02245,0.347935 0.01122,0.185191 0.0056,0.364771 v 0.667811 H 46.02244 v -3.838512 z m 4.304767,-0.07295 q 0.521903,0 0.836168,0.145908 0.314264,0.140297 0.448948,0.460173 0.140297,0.319876 0.140297,0.858614 0,0.527515 -0.140297,0.847391 -0.134684,0.319876 -0.448948,0.460173 -0.314265,0.140296 -0.836168,0.140296 -0.516291,0 -0.836167,-0.140296 -0.314264,-0.140297 -0.45456,-0.460173 -0.140297,-0.319876 -0.140297,-0.847391 0,-0.538738 0.140297,-0.858614 0.140296,-0.319876 0.45456,-0.460173 0.319876,-0.145908 0.836167,-0.145908 z m 0,0.606081 q -0.21325,0 -0.336711,0.07295 -0.123461,0.07295 -0.173968,0.258145 -0.05051,0.185192 -0.05051,0.527515 0,0.336712 0.05051,0.521903 0.05051,0.185192 0.173968,0.258146 0.123461,0.06734 0.336711,0.06734 0.213251,0 0.336712,-0.06734 0.123461,-0.07295 0.173968,-0.258146 0.05051,-0.185191 0.05051,-0.521903 0,-0.342323 -0.05051,-0.527515 -0.05051,-0.185191 -0.173968,-0.258145 -0.123461,-0.07295 -0.336712,-0.07295 z m 3.339527,-0.606081 q 0.202027,0 0.437725,0.01684 0.235698,0.01122 0.460172,0.03367 0.224475,0.02245 0.398443,0.05612 l -0.05612,0.516291 q -0.269369,-0.0056 -0.54435,-0.0056 -0.26937,-0.0056 -0.527515,-0.0056 -0.218863,-0.0056 -0.336712,0.0056 -0.117849,0.01122 -0.168356,0.05612 -0.0449,0.03928 -0.0449,0.145908 0,0.123461 0.08418,0.168356 0.08418,0.03928 0.280593,0.08979 l 0.72393,0.173968 q 0.347936,0.08979 0.516291,0.269369 0.168356,0.173968 0.168356,0.527515 0,0.347935 -0.129073,0.533126 -0.129072,0.185192 -0.409665,0.258146 -0.280593,0.06734 -0.72393,0.06734 -0.173968,0 -0.516291,-0.01684 -0.342324,-0.01684 -0.75199,-0.08418 l 0.05612,-0.516291 q 0.101013,0.0056 0.258146,0.01122 0.157132,0 0.342323,0 0.185191,0 0.370383,0 0.286205,0 0.437725,-0.01122 0.15152,-0.01684 0.207639,-0.06734 0.05612,-0.05051 0.05612,-0.15152 0,-0.123461 -0.0954,-0.168356 -0.0954,-0.04489 -0.303041,-0.0954 L 53.82948,70.626919 q -0.263758,-0.07295 -0.409666,-0.185191 -0.145908,-0.112237 -0.207639,-0.274981 -0.05612,-0.162744 -0.05612,-0.387219 0,-0.286205 0.112238,-0.45456 0.117849,-0.173968 0.375994,-0.252534 0.263758,-0.07857 0.695871,-0.07857 z m 3.300244,-0.695871 v 2.65441 q 0,0.15152 0.06734,0.218862 0.07295,0.06173 0.235698,0.06173 H 58.3026 l 0.08979,0.561186 q -0.101014,0.03367 -0.246922,0.05612 -0.145908,0.02806 -0.291817,0.03928 -0.145908,0.01684 -0.246922,0.01684 -0.375994,0 -0.589245,-0.202027 -0.207639,-0.202027 -0.207639,-0.566798 v -2.839601 z m 0.774436,0.768825 v 0.54435 h -2.093223 v -0.516291 l 0.538738,-0.02806 z m 2.200317,-0.07295 q 0.347936,0 0.589246,0.0954 0.24131,0.08979 0.36477,0.314264 0.129073,0.218862 0.129073,0.606081 v 1.829466 h -0.662199 l -0.117849,-0.600469 -0.05612,-0.08418 V 70.00401 q 0,-0.196415 -0.0954,-0.286205 -0.08979,-0.08979 -0.347936,-0.08979 -0.21325,0 -0.533126,0.01684 -0.319876,0.01122 -0.656588,0.03367 l -0.07857,-0.549962 q 0.202027,-0.03928 0.465784,-0.06734 0.263758,-0.02806 0.527515,-0.04489 0.263757,-0.02245 0.471396,-0.02245 z m 0.740766,1.139207 -0.0056,0.465785 -1.234609,0.0056 q -0.15152,0 -0.218863,0.07295 -0.06173,0.07295 -0.06173,0.196415 v 0.134685 q 0,0.140296 0.07857,0.218862 0.07857,0.07295 0.252534,0.07295 0.145908,0 0.314264,-0.06173 0.173967,-0.06173 0.342323,-0.173968 0.168356,-0.112237 0.297429,-0.263757 v 0.359159 q -0.05051,0.08418 -0.151521,0.21325 -0.0954,0.123461 -0.246921,0.246922 -0.151521,0.117849 -0.353548,0.202027 -0.202026,0.08418 -0.460172,0.08418 -0.252534,0 -0.454561,-0.08979 -0.202027,-0.08979 -0.319876,-0.263757 -0.117849,-0.173968 -0.117849,-0.432113 v -0.286205 q 0,-0.3311 0.224475,-0.516291 0.224474,-0.185192 0.617304,-0.185192 z m 2.340614,-1.139207 q 0.202026,0 0.437725,0.01684 0.235698,0.01122 0.460172,0.03367 0.224475,0.02245 0.398442,0.05612 l -0.05612,0.516291 q -0.26937,-0.0056 -0.544351,-0.0056 -0.269369,-0.0056 -0.527515,-0.0056 -0.218862,-0.0056 -0.336711,0.0056 -0.117849,0.01122 -0.168356,0.05612 -0.0449,0.03928 -0.0449,0.145908 0,0.123461 0.08418,0.168356 0.08418,0.03928 0.280593,0.08979 l 0.72393,0.173968 q 0.347935,0.08979 0.516291,0.269369 0.168356,0.173968 0.168356,0.527515 0,0.347935 -0.129073,0.533126 -0.129073,0.185192 -0.409666,0.258146 -0.280593,0.06734 -0.72393,0.06734 -0.173967,0 -0.516291,-0.01684 -0.342323,-0.01684 -0.751989,-0.08418 l 0.05612,-0.516291 q 0.101013,0.0056 0.258145,0.01122 0.157132,0 0.342324,0 0.185191,0 0.370382,0 0.286205,0 0.437725,-0.01122 0.151521,-0.01684 0.207639,-0.06734 0.05612,-0.05051 0.05612,-0.15152 0,-0.123461 -0.0954,-0.168356 -0.0954,-0.04489 -0.30304,-0.0954 l -0.701483,-0.173968 q -0.263757,-0.07295 -0.409665,-0.185191 -0.145909,-0.112237 -0.207639,-0.274981 -0.05612,-0.162744 -0.05612,-0.387219 0,-0.286205 0.112237,-0.45456 0.117849,-0.173968 0.375995,-0.252534 0.263757,-0.07857 0.695871,-0.07857 z m 4.984269,0 q 0.140296,0 0.325488,0.01684 0.190803,0.01122 0.387218,0.03928 0.202027,0.02245 0.381606,0.06734 0.17958,0.03928 0.308653,0.08979 l -0.667812,0.488231 q -0.0954,-0.03367 -0.230086,-0.05612 -0.129073,-0.02806 -0.263757,-0.03928 -0.129073,-0.01122 -0.230087,-0.0056 -0.196415,0.0056 -0.314264,0.08418 -0.117849,0.07295 -0.168355,0.263757 -0.04489,0.190803 -0.04489,0.538739 0,0.415277 0.0954,0.583633 0.0954,0.162744 0.375995,0.162744 0.202027,0 0.359159,-0.07295 0.162744,-0.07295 0.353547,-0.185191 l 0.07295,0.359159 q -0.129073,0.145908 -0.30304,0.280593 -0.173968,0.129072 -0.381607,0.21325 -0.202027,0.08418 -0.432113,0.08418 -0.527515,0 -0.763213,-0.359159 -0.230086,-0.364771 -0.230086,-1.077477 0,-0.336712 0.05612,-0.611693 0.06173,-0.274981 0.207638,-0.465784 0.151521,-0.190803 0.42089,-0.291817 0.269369,-0.106625 0.684647,-0.106625 z m 0.572409,0.179579 0.830556,0.03367 v 3.698215 h -0.830556 v -0.830555 q -0.0056,-0.190803 0.01684,-0.370383 0.02245,-0.179579 0.06734,-0.342323 l -0.08418,-0.07295 z m 2.604371,-0.106625 v 1.823855 q 0,0.173967 0.07295,0.246921 0.07857,0.07296 0.246922,0.07296 0.173967,0 0.342323,-0.06173 0.173968,-0.06734 0.426501,-0.207639 l 0.06734,0.454561 q -0.303041,0.263757 -0.594857,0.39283 -0.291817,0.129073 -0.600469,0.129073 -0.791273,0 -0.791273,-0.774437 v -2.076388 z m 1.835078,0 v 2.772259 h -0.656588 l -0.0954,-0.544351 -0.07857,-0.07857 v -2.149342 z m 2.284498,-0.07295 q 0.701483,0 1.004523,0.24131 0.308652,0.235698 0.308652,0.707094 0.0056,0.381607 -0.190803,0.57241 -0.196415,0.185191 -0.679035,0.185191 h -1.548873 v -0.465784 h 1.318787 q 0.190803,0 0.24131,-0.07857 0.05612,-0.08418 0.05612,-0.230086 -0.0056,-0.196415 -0.117849,-0.26937 -0.106625,-0.07857 -0.364771,-0.07857 -0.230086,0 -0.359159,0.06173 -0.129072,0.06173 -0.179579,0.235698 -0.05051,0.173968 -0.05051,0.505067 0,0.347936 0.06173,0.538739 0.06173,0.185191 0.207638,0.258145 0.151521,0.07296 0.415278,0.07296 0.190803,0 0.471396,-0.01122 0.286205,-0.01684 0.57241,-0.05051 l 0.07857,0.510679 q -0.162744,0.07857 -0.370383,0.123461 -0.207639,0.0449 -0.426501,0.06173 -0.218863,0.02245 -0.42089,0.02245 -0.527514,0 -0.853002,-0.15152 -0.319876,-0.157132 -0.465785,-0.477008 -0.140296,-0.319876 -0.140296,-0.819332 0,-0.54435 0.145908,-0.864226 0.145909,-0.319876 0.460173,-0.460173 0.314264,-0.140296 0.824943,-0.140296 z m 4.726112,-1.200938 q 0.101014,0 0.263757,0.0056 0.168356,0.0056 0.336712,0.02245 0.173968,0.01122 0.297429,0.03367 l -0.07295,0.533127 h -0.527514 q -0.213251,0 -0.297429,0.08418 -0.08418,0.08418 -0.08418,0.291817 v 3.075299 H 79.78854 v -3.181925 q 0,-0.263757 0.08418,-0.45456 0.08979,-0.190804 0.291816,-0.297429 0.202027,-0.112237 0.538739,-0.112237 z m 0.690259,1.273892 v 0.54435 H 79.30592 v -0.516291 l 0.499455,-0.02806 z m 1.987071,-0.07295 q 0.701483,0 1.004523,0.24131 0.308653,0.235698 0.308653,0.707094 0.0056,0.381607 -0.190804,0.57241 -0.196415,0.185191 -0.679035,0.185191 h -1.548873 v -0.465784 h 1.318787 q 0.190803,0 0.24131,-0.07857 0.05612,-0.08418 0.05612,-0.230086 -0.0056,-0.196415 -0.117849,-0.26937 -0.106626,-0.07857 -0.364771,-0.07857 -0.230086,0 -0.359159,0.06173 -0.129073,0.06173 -0.17958,0.235698 -0.05051,0.173968 -0.05051,0.505067 0,0.347936 0.06173,0.538739 0.06173,0.185191 0.207639,0.258145 0.15152,0.07296 0.415277,0.07296 0.190804,0 0.471397,-0.01122 0.286204,-0.01684 0.572409,-0.05051 l 0.07857,0.510679 q -0.162744,0.07857 -0.370382,0.123461 -0.207639,0.0449 -0.426502,0.06173 -0.218862,0.02245 -0.420889,0.02245 -0.527515,0 -0.853003,-0.15152 -0.319876,-0.157132 -0.465784,-0.477008 -0.140297,-0.319876 -0.140297,-0.819332 0,-0.54435 0.145909,-0.864226 0.145908,-0.319876 0.460172,-0.460173 0.314264,-0.140296 0.824943,-0.140296 z m 3.434924,0 q 0.15152,0 0.3311,0.01684 0.179579,0.01122 0.359159,0.05051 0.185191,0.03367 0.336711,0.101014 l -0.08979,0.521903 q -0.224474,-0.0056 -0.432113,-0.01122 -0.202027,-0.0056 -0.364771,-0.0056 -0.252533,0 -0.398442,0.06734 -0.145908,0.06734 -0.21325,0.24131 -0.06173,0.168356 -0.06173,0.471397 0,0.308652 0.06173,0.48262 0.06734,0.173967 0.21325,0.241309 0.145909,0.06734 0.398442,0.06734 0.08979,0 0.230087,-0.0056 0.140296,-0.0056 0.30304,-0.01122 0.162744,-0.01122 0.319876,-0.03367 l 0.07857,0.527515 q -0.224474,0.101013 -0.510679,0.145908 -0.286205,0.04489 -0.566798,0.04489 -0.516291,0 -0.824943,-0.140296 -0.303041,-0.145909 -0.437726,-0.465785 -0.134684,-0.319876 -0.134684,-0.853002 0,-0.533127 0.134684,-0.853003 0.140297,-0.319876 0.448949,-0.460173 0.308653,-0.140296 0.819332,-0.140296 z m 3.788479,0 q 0.785661,0 0.785661,0.768825 V 71.8391 H 90.5535 v -1.818243 q 0,-0.185191 -0.06734,-0.252533 -0.06173,-0.07295 -0.224474,-0.07295 -0.17958,0 -0.370383,0.06734 -0.190803,0.06734 -0.471396,0.218862 l -0.07295,-0.432113 q 0.308652,-0.269369 0.628528,-0.409666 0.319876,-0.145908 0.628528,-0.145908 z m -1.099924,-1.083089 0.0056,0.959628 q 0,0.218863 -0.02806,0.415278 -0.02245,0.196415 -0.05612,0.331099 l 0.07857,0.07296 v 2.149342 h -0.830556 v -3.928302 z m 4.299152,1.083089 q 0.347936,0 0.589246,0.0954 0.241309,0.08979 0.36477,0.314264 0.129073,0.218862 0.129073,0.606081 v 1.829466 h -0.662199 l -0.117849,-0.600469 -0.05612,-0.08418 v -1.150431 q 0,-0.196415 -0.0954,-0.286205 -0.08979,-0.08979 -0.347935,-0.08979 -0.213251,0 -0.533127,0.01684 -0.319876,0.01122 -0.656587,0.03367 l -0.07857,-0.549962 q 0.202027,-0.03928 0.465784,-0.06734 0.263758,-0.02806 0.527515,-0.04489 0.263757,-0.02245 0.471396,-0.02245 z m 0.740766,1.139207 -0.0056,0.465785 -1.234609,0.0056 q -0.151521,0 -0.218863,0.07295 -0.06173,0.07295 -0.06173,0.196415 v 0.134685 q 0,0.140296 0.07857,0.218862 0.07857,0.07295 0.252533,0.07295 0.145909,0 0.314265,-0.06173 0.173967,-0.06173 0.342323,-0.173968 0.168356,-0.112237 0.297429,-0.263757 v 0.359159 q -0.05051,0.08418 -0.151521,0.21325 -0.0954,0.123461 -0.246921,0.246922 -0.151521,0.117849 -0.353548,0.202027 -0.202027,0.08418 -0.460172,0.08418 -0.252534,0 -0.454561,-0.08979 -0.202027,-0.08979 -0.319876,-0.263757 -0.117849,-0.173968 -0.117849,-0.432113 v -0.286205 q 0,-0.3311 0.224475,-0.516291 0.224474,-0.185192 0.617304,-0.185192 z m 4.798606,-1.139207 q 0.375995,0 0.57241,0.196415 0.196414,0.196415 0.196414,0.57241 V 71.8391 h -0.824942 v -1.818243 q 0,-0.173967 -0.06734,-0.246922 -0.06734,-0.07857 -0.235698,-0.07857 -0.101013,0 -0.190803,0.02806 -0.08979,0.02806 -0.207639,0.08979 -0.117849,0.06173 -0.286205,0.168356 l -0.04489,-0.460172 q 0.26937,-0.263758 0.527515,-0.39283 0.263758,-0.134685 0.561186,-0.134685 z m -2.850825,0.07295 0.08418,0.549962 0.08418,0.07296 v 2.149342 h -0.830555 v -2.772259 z m 1.122372,-0.07295 q 0.370383,0 0.561186,0.196415 0.196415,0.190803 0.196415,0.57241 V 71.8391 H 97.57487 v -1.818243 q 0,-0.179579 -0.07857,-0.252533 -0.07295,-0.07295 -0.230086,-0.07295 -0.0954,0 -0.190803,0.02806 -0.08979,0.02245 -0.213251,0.08418 -0.117849,0.06173 -0.291817,0.173967 l -0.05051,-0.460172 q 0.274981,-0.263758 0.533126,-0.39283 0.258146,-0.134685 0.561186,-0.134685 z m 6.886687,0 q 0.78566,0 0.78566,0.768825 V 71.8391 h -0.83055 v -1.818243 q 0,-0.185191 -0.0674,-0.252533 -0.0673,-0.07295 -0.23008,-0.07295 -0.17958,0 -0.37038,0.07295 -0.19081,0.06734 -0.4714,0.21325 l -0.0393,-0.465784 q 0.29742,-0.252534 0.60608,-0.387218 0.31426,-0.134685 0.6173,-0.134685 z m -1.26267,0.07295 0.0954,0.549962 0.0674,0.07296 v 2.149342 h -0.83056 v -2.772259 z m 4.31038,-0.07295 q 0.70149,0 1.00453,0.24131 0.30865,0.235698 0.30865,0.707094 0.006,0.381607 -0.1908,0.57241 -0.19642,0.185191 -0.67904,0.185191 h -1.54887 v -0.465784 h 1.31878 q 0.19081,0 0.24131,-0.07857 0.0561,-0.08418 0.0561,-0.230086 -0.006,-0.196415 -0.11785,-0.26937 -0.10662,-0.07857 -0.36477,-0.07857 -0.23008,0 -0.35916,0.06173 -0.12907,0.06173 -0.17958,0.235698 -0.0505,0.173968 -0.0505,0.505067 0,0.347936 0.0617,0.538739 0.0617,0.185191 0.20764,0.258145 0.15152,0.07296 0.41527,0.07296 0.19081,0 0.4714,-0.01122 0.28621,-0.01684 0.57241,-0.05051 l 0.0786,0.510679 q -0.16275,0.07857 -0.37039,0.123461 -0.20764,0.0449 -0.4265,0.06173 -0.21886,0.02245 -0.42089,0.02245 -0.52751,0 -0.853,-0.15152 -0.31988,-0.157132 -0.46578,-0.477008 -0.1403,-0.319876 -0.1403,-0.819332 0,-0.54435 0.14591,-0.864226 0.14591,-0.319876 0.46017,-0.460173 0.31426,-0.140296 0.82494,-0.140296 z m 3.3788,0 q 0.48262,0 0.76322,0.08979 0.2862,0.08979 0.40966,0.280593 0.12908,0.190803 0.12908,0.510679 0,0.308652 -0.12347,0.505067 -0.12346,0.190803 -0.41527,0.280593 -0.28621,0.08979 -0.76883,0.08979 -0.48262,0 -0.77443,-0.08979 -0.28621,-0.08979 -0.41528,-0.280593 -0.12346,-0.190803 -0.12346,-0.505067 0,-0.314264 0.12346,-0.505068 0.12907,-0.196415 0.42089,-0.286204 0.29181,-0.08979 0.77443,-0.08979 z m -0.006,0.510679 q -0.30865,0 -0.4265,0.08418 -0.11785,0.07857 -0.11785,0.286205 0,0.207639 0.11785,0.291817 0.11785,0.08418 0.4265,0.08418 0.30865,0 0.42089,-0.08418 0.11224,-0.08418 0.11224,-0.291817 0,-0.207639 -0.11224,-0.286205 -0.11224,-0.08418 -0.42089,-0.08418 z m 1.62744,-0.437725 -0.0449,0.353547 -0.74077,0.0954 -0.20203,-0.448949 z m -2.4636,1.515202 0.41527,0.07295 q -0.0786,0.04489 -0.11223,0.140297 -0.0281,0.0954 0.0168,0.179579 0.0449,0.08418 0.19642,0.101014 l 1.02135,0.117849 q 0.43773,0.04489 0.61731,0.246922 0.17958,0.196415 0.17958,0.578021 0,0.359159 -0.14591,0.549963 -0.14591,0.196415 -0.46578,0.269369 -0.31988,0.07295 -0.85301,0.07295 -0.43772,0 -0.72393,-0.04489 -0.28059,-0.03928 -0.44895,-0.134684 -0.16274,-0.0954 -0.23008,-0.252534 -0.0617,-0.15152 -0.0617,-0.381607 0,-0.173967 0.0617,-0.297428 0.0617,-0.129073 0.20764,-0.230086 0.15152,-0.101014 0.42089,-0.185192 l 0.40966,-0.145908 0.29743,0.117849 -0.22447,0.145908 q -0.1403,0.101014 -0.23009,0.173968 -0.0842,0.06734 -0.12346,0.134685 -0.0337,0.06734 -0.0337,0.179579 0,0.129073 0.0561,0.196415 0.0561,0.07295 0.20202,0.0954 0.15152,0.02806 0.40967,0.02806 0.26937,0 0.42089,-0.02806 0.15152,-0.02245 0.20764,-0.08979 0.0617,-0.06734 0.0617,-0.190803 0,-0.106626 -0.0449,-0.157132 -0.0393,-0.05051 -0.14029,-0.07296 -0.0954,-0.02806 -0.26937,-0.05051 l -0.86984,-0.0954 q -0.21886,-0.02245 -0.34232,-0.117849 -0.12346,-0.0954 -0.17397,-0.230086 -0.0449,-0.140297 -0.0225,-0.280593 0.0225,-0.140297 0.10101,-0.252534 0.0842,-0.112237 0.21326,-0.162744 z m 4.44786,-1.588156 q 0.5219,0 0.83616,0.145908 0.31427,0.140297 0.44895,0.460173 0.1403,0.319876 0.1403,0.858614 0,0.527515 -0.1403,0.847391 -0.13468,0.319876 -0.44895,0.460173 -0.31426,0.140296 -0.83616,0.140296 -0.5163,0 -0.83617,-0.140296 -0.31427,-0.140297 -0.45456,-0.460173 -0.1403,-0.319876 -0.1403,-0.847391 0,-0.538738 0.1403,-0.858614 0.14029,-0.319876 0.45456,-0.460173 0.31987,-0.145908 0.83617,-0.145908 z m 0,0.606081 q -0.21325,0 -0.33672,0.07295 -0.12346,0.07295 -0.17396,0.258145 -0.0505,0.185192 -0.0505,0.527515 0,0.336712 0.0505,0.521903 0.0505,0.185192 0.17396,0.258146 0.12347,0.06734 0.33672,0.06734 0.21325,0 0.33671,-0.06734 0.12346,-0.07295 0.17397,-0.258146 0.0505,-0.185191 0.0505,-0.521903 0,-0.342323 -0.0505,-0.527515 -0.0505,-0.185191 -0.17397,-0.258145 -0.12346,-0.07295 -0.33671,-0.07295 z m 0.65658,-1.986599 0.35916,0.561186 -1.25144,0.622917 -0.24692,-0.353547 z m 2.91864,1.380518 q 0.15152,0 0.3311,0.01684 0.17958,0.01122 0.35916,0.05051 0.18519,0.03367 0.33671,0.101014 l -0.0898,0.521903 q -0.22447,-0.0056 -0.43211,-0.01122 -0.20203,-0.0056 -0.36477,-0.0056 -0.25253,0 -0.39844,0.06734 -0.14591,0.06734 -0.21325,0.24131 -0.0617,0.168356 -0.0617,0.471397 0,0.308652 0.0617,0.48262 0.0673,0.173967 0.21325,0.241309 0.14591,0.06734 0.39844,0.06734 0.0898,0 0.23009,-0.0056 0.14029,-0.0056 0.30304,-0.01122 0.16274,-0.01122 0.31987,-0.03367 l 0.0786,0.527515 q -0.22448,0.101013 -0.51068,0.145908 -0.28621,0.04489 -0.5668,0.04489 -0.51629,0 -0.82494,-0.140296 -0.30304,-0.145909 -0.43773,-0.465785 -0.13468,-0.319876 -0.13468,-0.853002 0,-0.533127 0.13468,-0.853003 0.1403,-0.319876 0.44895,-0.460173 0.30865,-0.140296 0.81933,-0.140296 z m 2.70539,0.07295 v 2.772259 h -0.82494 v -2.772259 z m -0.23008,-1.223385 q 0.24692,0 0.24692,0.252533 v 0.297429 q 0,0.252534 -0.24692,0.252534 h -0.35916 q -0.24692,0 -0.24692,-0.252534 V 68.09597 q 0,-0.252533 0.24692,-0.252533 z m 2.54264,1.150431 q 0.5219,0 0.83616,0.145908 0.31427,0.140297 0.44895,0.460173 0.1403,0.319876 0.1403,0.858614 0,0.527515 -0.1403,0.847391 -0.13468,0.319876 -0.44895,0.460173 -0.31426,0.140296 -0.83616,0.140296 -0.51629,0 -0.83617,-0.140296 -0.31427,-0.140297 -0.45456,-0.460173 -0.1403,-0.319876 -0.1403,-0.847391 0,-0.538738 0.1403,-0.858614 0.14029,-0.319876 0.45456,-0.460173 0.31988,-0.145908 0.83617,-0.145908 z m 0,0.606081 q -0.21325,0 -0.33672,0.07295 -0.12346,0.07295 -0.17396,0.258145 -0.0505,0.185192 -0.0505,0.527515 0,0.336712 0.0505,0.521903 0.0505,0.185192 0.17396,0.258146 0.12347,0.06734 0.33672,0.06734 0.21325,0 0.33671,-0.06734 0.12346,-0.07295 0.17397,-0.258146 0.0505,-0.185191 0.0505,-0.521903 0,-0.342323 -0.0505,-0.527515 -0.0505,-0.185191 -0.17397,-0.258145 -0.12346,-0.07295 -0.33671,-0.07295 z m 3.33952,-0.606081 q 0.20202,0 0.43772,0.01684 0.2357,0.01122 0.46018,0.03367 0.22447,0.02245 0.39844,0.05612 l -0.0561,0.516291 q -0.26937,-0.0056 -0.54435,-0.0056 -0.26937,-0.0056 -0.52752,-0.0056 -0.21886,-0.0056 -0.33671,0.0056 -0.11785,0.01122 -0.16835,0.05612 -0.0449,0.03928 -0.0449,0.145908 0,0.123461 0.0842,0.168356 0.0842,0.03928 0.28059,0.08979 l 0.72393,0.173968 q 0.34794,0.08979 0.51629,0.269369 0.16836,0.173968 0.16836,0.527515 0,0.347935 -0.12907,0.533126 -0.12908,0.185192 -0.40967,0.258146 -0.28059,0.06734 -0.72393,0.06734 -0.17397,0 -0.51629,-0.01684 -0.34232,-0.01684 -0.75199,-0.08418 l 0.0561,-0.516291 q 0.10101,0.0056 0.25814,0.01122 0.15714,0 0.34233,0 0.18519,0 0.37038,0 0.28621,0 0.43773,-0.01122 0.15152,-0.01684 0.20763,-0.06734 0.0561,-0.05051 0.0561,-0.15152 0,-0.123461 -0.0954,-0.168356 -0.0954,-0.04489 -0.30304,-0.0954 l -0.70148,-0.173968 q -0.26376,-0.07295 -0.40967,-0.185191 -0.14591,-0.112237 -0.20764,-0.274981 -0.0561,-0.162744 -0.0561,-0.387219 0,-0.286205 0.11223,-0.45456 0.11785,-0.173968 0.376,-0.252534 0.26375,-0.07857 0.69587,-0.07857 z"
         id="text1"
         aria-label="Propostas que fecham negócios" /></g></g></svg>
