<?xml version="1.0" encoding="UTF-8" standalone="no"?>
<!-- Created with Inkscape (http://www.inkscape.org/) -->

<svg
   width="512"
   height="448.51199"
   viewBox="0 0 135.46666 118.6688"
   version="1.1"
   id="svg1"
   xml:space="preserve"
   inkscape:version="1.4.4 (dcaf3e7d9e, 2026-05-05)"
   sodipodi:docname="V3RProp-Logo.svg"
   inkscape:export-filename="V3RProp-Logo.png"
   inkscape:export-xdpi="96"
   inkscape:export-ydpi="96"
   xmlns:inkscape="http://www.inkscape.org/namespaces/inkscape"
   xmlns:sodipodi="http://sodipodi.sourceforge.net/DTD/sodipodi-0.dtd"
   xmlns="http://www.w3.org/2000/svg"
   xmlns:svg="http://www.w3.org/2000/svg"><sodipodi:namedview
     id="namedview1"
     pagecolor="#ffffff"
     bordercolor="#000000"
     borderopacity="0.25"
     inkscape:showpageshadow="2"
     inkscape:pageopacity="0.0"
     inkscape:pagecheckerboard="0"
     inkscape:deskcolor="#d1d1d1"
     inkscape:document-units="px"
     showguides="true"
     inkscape:zoom="1.0116647"
     inkscape:cx="106.75474"
     inkscape:cy="191.26891"
     inkscape:window-width="2560"
     inkscape:window-height="1012"
     inkscape:window-x="0"
     inkscape:window-y="0"
     inkscape:window-maximized="1"
     inkscape:current-layer="layer1" /><defs
     id="defs1" /><g
     inkscape:label="Camada 1"
     inkscape:groupmode="layer"
     id="layer1"><g
       id="g1"><g
         id="g26"
         transform="matrix(1.0649359,0,0,1.0649359,106.63936,-47.024124)"><path
           style="fill:#24393a;fill-opacity:1;stroke-width:0.0584034"
           d="M -52.327977,44.15676 V 86.41951 H -18.35973 V 50.878618 l -7.803529,-6.721858 z"
           id="path12" /><path
           style="fill:#24393a;fill-opacity:1;stroke-width:0.0584034"
           d="m -56.09,50.878618 v 42.108191 h 33.84216 V 86.41951 h -26.192028 l 0.02727,-35.540892 z"
           id="path11"
           sodipodi:nodetypes="ccccccc" /><path
           style="fill:#ffffff;stroke-width:0.0584034"
           d="m -50.945631,45.347495 v 42.26275 h 33.968247 V 52.069353 l -7.803529,-6.721858 z"
           id="path25" /><path
           style="fill:#da8c1c;fill-opacity:1;stroke-width:0.0584034"
           d="m -24.780913,45.347495 7.803529,6.721858 c 0,0 -6.162868,-0.422035 -6.638855,-0.78281 -0.403993,-0.306214 -1.164674,-5.939048 -1.164674,-5.939048 z"
           id="path14"
           sodipodi:nodetypes="ccsc" /><path
           id="rect14"
           style="fill:#24393a;fill-opacity:1;stroke-width:0.0584034"
           d="m -34.310804,58.32764 h 13.746946 c 0.296175,0 0.534607,0.238431 0.534607,0.534601 0,0.296169 -0.238432,0.534606 -0.534607,0.534606 h -13.746946 c -0.296169,0 -0.5346,-0.238437 -0.5346,-0.534606 0,-0.29617 0.238431,-0.534601 0.5346,-0.534601 z" /><path
           id="path15"
           style="fill:#24393a;fill-opacity:1;stroke-width:0.0584034"
           d="m -34.310804,61.128413 h 13.746946 c 0.296175,0 0.534607,0.238432 0.534607,0.534601 0,0.296169 -0.238432,0.534607 -0.534607,0.534607 h -13.746946 c -0.296169,0 -0.5346,-0.238438 -0.5346,-0.534607 0,-0.296169 0.238431,-0.534601 0.5346,-0.534601 z" /><path
           id="path16"
           style="fill:#24393a;fill-opacity:1;stroke-width:0.0584034"
           d="m -34.31078,63.929187 h 13.746946 c 0.296175,0 0.534606,0.238431 0.534606,0.534601 0,0.296169 -0.238431,0.534606 -0.534606,0.534606 H -34.31078 c -0.296169,0 -0.534601,-0.238437 -0.534601,-0.534606 0,-0.29617 0.238432,-0.534601 0.534601,-0.534601 z" /><path
           id="path17"
           style="fill:#24393a;fill-opacity:1;stroke-width:0.0584034"
           d="m -34.31078,66.72996 h 13.746946 c 0.296175,0 0.534606,0.238432 0.534606,0.534601 0,0.296169 -0.238431,0.534607 -0.534606,0.534607 H -34.31078 c -0.296169,0 -0.534601,-0.238438 -0.534601,-0.534607 0,-0.296169 0.238432,-0.534601 0.534601,-0.534601 z" /><path
           id="path18"
           style="fill:#24393a;fill-opacity:1;stroke-width:0.0584034"
           d="m -47.217635,69.530734 h 26.653801 c 0.296175,0 0.534606,0.238432 0.534606,0.534601 0,0.296169 -0.238431,0.534607 -0.534606,0.534607 h -26.653801 c -0.296169,0 -0.5346,-0.238438 -0.5346,-0.534607 0,-0.296169 0.238431,-0.534601 0.5346,-0.534601 z"
           sodipodi:nodetypes="sssssss" /><path
           id="path19"
           style="fill:#24393a;fill-opacity:1;stroke-width:0.0584034"
           d="m -47.217635,72.331508 h 22.436722 c 0.296175,0 0.534607,0.238431 0.534607,0.5346 0,0.29617 -0.238432,0.534607 -0.534607,0.534607 h -22.436722 c -0.296169,0 -0.5346,-0.238437 -0.5346,-0.534607 0,-0.296169 0.238431,-0.5346 0.5346,-0.5346 z"
           sodipodi:nodetypes="sssssss" /><path
           id="path20"
           style="fill:#24393a;fill-opacity:1;stroke-width:0.0584034"
           d="m -47.217635,75.132281 h 22.436722 c 0.296175,0 0.534607,0.238432 0.534607,0.534601 0,0.296169 -0.238432,0.534607 -0.534607,0.534607 h -22.436722 c -0.296169,0 -0.5346,-0.238438 -0.5346,-0.534607 0,-0.296169 0.238431,-0.534601 0.5346,-0.534601 z"
           sodipodi:nodetypes="sssssss" /><path
           id="path21"
           style="fill:#24393a;fill-opacity:1;stroke-width:0.0584034"
           d="m -47.217635,77.933055 h 22.436722 c 0.296175,0 0.534607,0.238431 0.534607,0.534601 0,0.296169 -0.238432,0.534606 -0.534607,0.534606 h -22.436722 c -0.296169,0 -0.5346,-0.238437 -0.5346,-0.534606 0,-0.29617 0.238431,-0.534601 0.5346,-0.534601 z"
           sodipodi:nodetypes="sssssss" /><path
           id="path23"
           style="fill:#24393a;fill-opacity:1;stroke-width:0.0584034"
           d="m -47.217635,80.733828 h 22.436722 c 0.296175,0 0.534607,0.238432 0.534607,0.534601 0,0.296169 -0.238432,0.534607 -0.534607,0.534607 h -22.436722 c -0.296169,0 -0.5346,-0.238438 -0.5346,-0.534607 0,-0.296169 0.238431,-0.534601 0.5346,-0.534601 z"
           sodipodi:nodetypes="sssssss" /><path
           id="rect23"
           style="fill:#da8c1c;fill-opacity:1;stroke-width:0.0584034"
           d="m -45.742202,56.035238 h 5.526417 c 0.761579,0 1.374698,0.613113 1.374698,1.374698 v 5.526411 c 0,0.761586 -0.613119,1.374698 -1.374698,1.374698 h -5.526417 c -0.76158,0 -1.374693,-0.613112 -1.374693,-1.374698 v -5.526411 c 0,-0.761585 0.613113,-1.374698 1.374693,-1.374698 z" /><path
           style="fill:#ffffff;stroke-width:0.0818821"
           d="m -46.905574,59.927856 2.278017,3.394596 5.575149,-6.29862 -5.395307,3.33434 z"
           id="path24"
           sodipodi:nodetypes="ccccc" /></g><path
         id="path38"
         style="fill:#e6a61c;stroke-width:0.560581"
         d="M 67.733313,44.197813 34.794589,14.700908 V 30.432944 L 67.727235,62.34536 Z"
         sodipodi:nodetypes="ccccc" /><path
         id="path40"
         style="fill:#1e2d2b;fill-opacity:1;stroke-width:0.560581"
         d="M 67.733313,62.34536 22.139245,18.171914 v 26.025899 l 45.594073,44.395916 z"
         sodipodi:nodetypes="ccccc" /><path
         id="path13"
         style="fill:#da8c1c;fill-opacity:1;stroke-width:0.560581"
         d="M 67.730273,44.197813 100.669,14.700908 V 30.432944 L 67.736351,62.34536 Z"
         sodipodi:nodetypes="ccccc" /><path
         id="path22"
         style="fill:#24393a;stroke-width:0.560581"
         d="M 67.733323,62.34536 113.32739,18.171914 V 44.197813 L 67.733318,88.593729 Z"
         sodipodi:nodetypes="ccccc" /><path
         style="font-size:47.7142px;font-family:'Good Times';-inkscape-font-specification:'Good Times';fill:#1e2d2b;stroke-width:12.1725"
         d="M -4.8435257e-7,93.94516 H 4.1458911 l 8.8267379,14.97871 8.799991,-14.97871 h 3.905162 L 14.4705,112.56156 c -0.196149,0.3388 -0.427963,0.60627 -0.695439,0.80243 -0.267477,0.19615 -0.579534,0.29422 -0.936169,0.29422 -0.374468,0 -0.695441,-0.0981 -0.962918,-0.29422 -0.267476,-0.19616 -0.49929,-0.46363 -0.69544,-0.80243 z M 16.192287,113.39073 l 1.956074,-3.39695 h 21.65221 c 1.069908,0 1.943666,-0.21398 2.621275,-0.64195 0.677607,-0.42796 1.016411,-1.06991 1.016411,-1.92583 0,-0.80244 -0.249644,-1.41763 -0.748934,-1.8456 -0.499291,-0.42796 -1.230395,-0.64194 -2.193311,-0.64194 h -8.586009 v -2.862 h 8.34528 c 0.962916,0 1.676188,-0.17832 2.139815,-0.53495 0.463626,-0.35664 0.695439,-0.96293 0.695439,-1.818849 0,-0.909423 -0.30314,-1.533529 -0.909421,-1.872338 -0.606281,-0.356637 -1.471123,-0.53495 -2.594526,-0.53495 H 25.448974 l 1.940669,-3.370213 h 12.86564 c 0.945085,0 1.801011,0.106994 2.567778,0.320972 0.766767,0.213977 1.426543,0.534949 1.979329,0.962915 0.552786,0.410138 0.971833,0.936174 1.257142,1.578118 0.30314,0.624105 0.45471,1.346302 0.45471,2.166558 0,1.230397 -0.267476,2.175487 -0.802431,2.835267 -0.517121,0.64194 -1.141234,1.07882 -1.872338,1.31062 0.89159,0.28531 1.622694,0.80244 2.193311,1.55138 0.570617,0.74893 0.855926,1.69402 0.855926,2.83524 0,0.8916 -0.15157,1.70294 -0.454711,2.43404 -0.285309,0.71328 -0.704357,1.32848 -1.257141,1.8456 -0.534954,0.4993 -1.194731,0.8916 -1.97933,1.1769 -0.766766,0.28531 -1.622693,0.42796 -2.567778,0.42796 z m 50.121233,0 -4.921576,-5.40303 h -7.275371 v -2.99574 h 8.10455 c 1.230393,0 2.157647,-0.32989 2.781759,-0.98967 0.624113,-0.67761 0.936169,-1.64944 0.936169,-2.9155 0,-1.266049 -0.329887,-2.202223 -0.989664,-2.808502 -0.641944,-0.624116 -1.551365,-0.936164 -2.728264,-0.936164 H 51.629038 V 113.39073 H 48.258829 V 93.94516 h 13.962294 c 1.105571,0 2.095235,0.169399 2.968994,0.508209 0.873758,0.320971 1.613777,0.793515 2.220058,1.417621 0.606282,0.606289 1.069905,1.346303 1.390878,2.220061 0.320971,0.873759 0.481462,1.854512 0.481462,2.942249 0,1.62269 -0.356638,2.98682 -1.069911,4.0924 -0.695438,1.08773 -1.676187,1.87234 -2.942244,2.35379 l 5.857746,5.91124 z"
         id="text22"
         aria-label="V3R"
         sodipodi:nodetypes="ccccccsssccccsssssccssscsccssccsccsscccscccccscscsccccsccsscccc" /><path
         style="font-weight:bold;font-size:27.7795px;font-family:'Exo 2';-inkscape-font-specification:'Exo 2 Bold';letter-spacing:1.44685px;fill:#da8c1c;stroke-width:0.109368"
         d="m 79.72011,93.945082 q 2.694611,0 4.222484,0.55559 1.527872,0.55559 2.166801,1.916786 0.666708,1.361195 0.666708,3.805792 0,2.4446 -0.638929,3.80579 -0.611149,1.3612 -2.027903,1.91679 -1.416755,0.52781 -3.833571,0.52781 -1.277857,0 -2.500155,-0.11112 -1.222298,-0.11112 -2.277919,-0.2778 -1.055621,-0.16667 -1.805667,-0.33335 -0.750047,-0.19446 -1.027842,-0.36113 l 0.08334,-2.11125 q 1.63899,0 3.389099,0 1.777887,0 3.500216,0 1.11118,-0.0278 1.722329,-0.27779 0.638929,-0.25002 0.888944,-0.91672 0.277795,-0.66671 0.277795,-1.86123 0,-1.222299 -0.277795,-1.889007 -0.250015,-0.666708 -0.888944,-0.916723 -0.611149,-0.277795 -1.722329,-0.277795 -2.555714,0 -4.38916,0.02778 -1.833447,0.02778 -2.472376,0.111118 l -0.416692,-3.055745 q 1.166739,-0.138897 2.19458,-0.194456 1.027842,-0.05556 2.22236,-0.05556 1.222298,-0.02778 2.944627,-0.02778 z m -3.111304,0.277795 V 113.39073 H 72.358543 V 94.222877 Z m 17.336723,5.444782 0.500031,2.722391 0.388913,0.36113 v 10.63955 H 90.723107 V 99.667659 Z m 6.694861,-0.361133 -0.38891,3.805794 h -1.138964 q -0.972282,0 -2.027903,0.27779 -1.055621,0.2778 -2.666832,0.83339 l -0.277795,-2.3057 q 1.444534,-1.27786 2.916847,-1.944566 1.472314,-0.666708 2.861288,-0.666708 z m 9.6835,0 q 2.58349,0 4.13914,0.722264 1.55565,0.69449 2.22236,2.27792 0.69449,1.58343 0.69449,4.25027 0,2.61127 -0.69449,4.1947 -0.66671,1.58343 -2.22236,2.27792 -1.55565,0.69449 -4.13914,0.69449 -2.55572,0 -4.13915,-0.69449 -1.55565,-0.69449 -2.25014,-2.27792 -0.69449,-1.58343 -0.69449,-4.1947 0,-2.66684 0.69449,-4.25027 0.69449,-1.58343 2.25014,-2.27792 1.58343,-0.722264 4.13915,-0.722264 z m 0,3.000184 q -1.05563,0 -1.66677,0.36114 -0.61115,0.36113 -0.86117,1.27785 -0.25001,0.91673 -0.25001,2.61128 0,1.66676 0.25001,2.58349 0.25002,0.91672 0.86117,1.27786 0.61114,0.33335 1.66677,0.33335 1.05562,0 1.66677,-0.33335 0.61114,-0.36114 0.86116,-1.27786 0.25002,-0.91673 0.25002,-2.58349 0,-1.69455 -0.25002,-2.61128 -0.25002,-0.91672 -0.86116,-1.27785 -0.61115,-0.36114 -1.66677,-0.36114 z m 20.33691,-2.972405 q 2.58349,0 3.69467,1.889005 1.11118,1.88901 1.11118,5.417 0,2.75017 -0.58337,4.30583 -0.55559,1.55565 -1.72233,2.19458 -1.13896,0.61115 -2.86129,0.61115 -1.47231,0 -2.80573,-0.4167 -1.33341,-0.41669 -2.36125,-1.38897 l 0.27779,-1.83345 q 0.91673,0.2778 1.66677,0.50003 0.77783,0.19446 1.75011,0.19446 0.88894,0 1.41676,-0.30558 0.52781,-0.30557 0.75004,-1.19451 0.25002,-0.91673 0.25002,-2.63906 0,-1.69455 -0.22224,-2.58349 -0.22223,-0.91672 -0.72227,-1.25008 -0.50003,-0.36113 -1.30563,-0.36113 -0.88895,0 -1.63899,0.36113 -0.75005,0.33336 -1.69455,0.97228 l -0.52781,-1.889 q 0.55559,-0.75005 1.41675,-1.33342 0.88895,-0.58337 1.94457,-0.916721 1.05562,-0.333354 2.1668,-0.333354 z m -5.6948,0.333354 0.38891,2.500151 0.38892,0.4167 v 8.91722 l -0.1389,0.33335 q 0.0833,0.83338 0.11112,1.72233 0.0556,0.91672 0.0278,1.80567 v 3.30576 h -4.11137 V 99.667659 Z"
         id="text26"
         aria-label="Prop" /></g></g></svg>
